<svg xmlns="http://www.w3.org/2000/svg" xmlns:xlink="http://www.w3.org/1999/xlink" viewBox="0 0 60 76.25" version="1.1" x="0px" y="0px"><title>55 -Factory- (ecology, nature, enviorment)</title><desc>Created with Sketch.</desc><g stroke="none" stroke-width="1" fill="none" fill-rule="evenodd"><g transform="translate(-599.000000, -950.000000)" fill="#000000"><g transform="translate(599.000000, 950.000000)"><path d="M2,58.016 L18,58.016 L18,28.016 L2,28.016 L2,58.016 Z M19,60.016 L1,60.016 C0.448,60.016 0,59.569 0,59.016 L0,27.016 C0,26.463 0.448,26.016 1,26.016 L19,26.016 C19.552,26.016 20,26.463 20,27.016 L20,59.016 C20,59.569 19.552,60.016 19,60.016 L19,60.016 Z"/><path d="M24,58.016 L58,58.016 L58,38.016 L24,38.016 L24,58.016 Z M59,60.016 L23,60.016 C22.448,60.016 22,59.569 22,59.016 L22,37.016 C22,36.463 22.448,36.016 23,36.016 L59,36.016 C59.553,36.016 60,36.463 60,37.016 L60,59.016 C60,59.569 59.553,60.016 59,60.016 L59,60.016 Z"/><path d="M50,36.016 L58,36.016 L58,32.634 L50,28.634 L50,36.016 Z M59,38.016 L49,38.016 C48.447,38.016 48,37.569 48,37.016 L48,27.016 C48,26.669 48.18,26.348 48.475,26.165 C48.769,25.982 49.137,25.968 49.447,26.121 L59.447,31.121 C59.786,31.291 60,31.637 60,32.016 L60,37.016 C60,37.569 59.553,38.016 59,38.016 L59,38.016 Z"/><path d="M26,36.016 L30,36.016 L30,22.016 L26,22.016 L26,36.016 Z M31,38.016 L25,38.016 C24.448,38.016 24,37.569 24,37.016 L24,21.016 C24,20.463 24.448,20.016 25,20.016 L31,20.016 C31.552,20.016 32,20.463 32,21.016 L32,37.016 C32,37.569 31.552,38.016 31,38.016 L31,38.016 Z"/><path d="M8,26.016 L12,26.016 L12,13.016 L8,13.016 L8,26.016 Z M13,28.016 L7,28.016 C6.448,28.016 6,27.569 6,27.016 L6,12.016 C6,11.463 6.448,11.016 7,11.016 L13,11.016 C13.552,11.016 14,11.463 14,12.016 L14,27.016 C14,27.569 13.552,28.016 13,28.016 L13,28.016 Z"/><path d="M7,58.016 L13,58.016 L13,53.016 L7,53.016 L7,58.016 Z M14,60.016 L6,60.016 C5.448,60.016 5,59.569 5,59.016 L5,52.016 C5,51.463 5.448,51.016 6,51.016 L14,51.016 C14.552,51.016 15,51.463 15,52.016 L15,59.016 C15,59.569 14.552,60.016 14,60.016 L14,60.016 Z"/><path d="M7,35.016 L13,35.016 L13,32.016 L7,32.016 L7,35.016 Z M14,37.016 L6,37.016 C5.448,37.016 5,36.569 5,36.016 L5,31.016 C5,30.463 5.448,30.016 6,30.016 L14,30.016 C14.552,30.016 15,30.463 15,31.016 L15,36.016 C15,36.569 14.552,37.016 14,37.016 L14,37.016 Z"/><path d="M14,45.016 L6,45.016 C5.448,45.016 5,44.569 5,44.016 C5,43.463 5.448,43.016 6,43.016 L14,43.016 C14.552,43.016 15,43.463 15,44.016 C15,44.569 14.552,45.016 14,45.016"/><path d="M14,41.016 L6,41.016 C5.448,41.016 5,40.569 5,40.016 C5,39.463 5.448,39.016 6,39.016 L14,39.016 C14.552,39.016 15,39.463 15,40.016 C15,40.569 14.552,41.016 14,41.016"/><path d="M14,49.016 L6,49.016 C5.448,49.016 5,48.569 5,48.016 C5,47.463 5.448,47.016 6,47.016 L14,47.016 C14.552,47.016 15,47.463 15,48.016 C15,48.569 14.552,49.016 14,49.016"/><path d="M30,45.016 L32,45.016 L32,43.016 L30,43.016 L30,45.016 Z M33,47.016 L29,47.016 C28.448,47.016 28,46.569 28,46.016 L28,42.016 C28,41.463 28.448,41.016 29,41.016 L33,41.016 C33.552,41.016 34,41.463 34,42.016 L34,46.016 C34,46.569 33.552,47.016 33,47.016 L33,47.016 Z"/><path d="M33,51.016 L29,51.016 C28.448,51.016 28,50.569 28,50.016 C28,49.463 28.448,49.016 29,49.016 L33,49.016 C33.552,49.016 34,49.463 34,50.016 C34,50.569 33.552,51.016 33,51.016"/><path d="M33,55.016 L29,55.016 C28.448,55.016 28,54.569 28,54.016 C28,53.463 28.448,53.016 29,53.016 L33,53.016 C33.552,53.016 34,53.463 34,54.016 C34,54.569 33.552,55.016 33,55.016"/><path d="M40,45.016 L42,45.016 L42,43.016 L40,43.016 L40,45.016 Z M43,47.016 L39,47.016 C38.448,47.016 38,46.569 38,46.016 L38,42.016 C38,41.463 38.448,41.016 39,41.016 L43,41.016 C43.552,41.016 44,41.463 44,42.016 L44,46.016 C44,46.569 43.552,47.016 43,47.016 L43,47.016 Z"/><path d="M43,51.016 L39,51.016 C38.448,51.016 38,50.569 38,50.016 C38,49.463 38.448,49.016 39,49.016 L43,49.016 C43.552,49.016 44,49.463 44,50.016 C44,50.569 43.552,51.016 43,51.016"/><path d="M43,55.016 L39,55.016 C38.448,55.016 38,54.569 38,54.016 C38,53.463 38.448,53.016 39,53.016 L43,53.016 C43.552,53.016 44,53.463 44,54.016 C44,54.569 43.552,55.016 43,55.016"/><path d="M50,45.016 L52,45.016 L52,43.016 L50,43.016 L50,45.016 Z M53,47.016 L49,47.016 C48.447,47.016 48,46.569 48,46.016 L48,42.016 C48,41.463 48.447,41.016 49,41.016 L53,41.016 C53.553,41.016 54,41.463 54,42.016 L54,46.016 C54,46.569 53.553,47.016 53,47.016 L53,47.016 Z"/><path d="M53,51.016 L49,51.016 C48.447,51.016 48,50.569 48,50.016 C48,49.463 48.447,49.016 49,49.016 L53,49.016 C53.553,49.016 54,49.463 54,50.016 C54,50.569 53.553,51.016 53,51.016"/><path d="M53,55.016 L49,55.016 C48.447,55.016 48,54.569 48,54.016 C48,53.463 48.447,53.016 49,53.016 L53,53.016 C53.553,53.016 54,53.463 54,54.016 C54,54.569 53.553,55.016 53,55.016"/><path d="M43,36.016 L48,36.016 L48,31.134 L43,28.634 L43,36.016 Z M49,38.016 L42,38.016 C41.448,38.016 41,37.569 41,37.016 L41,27.016 C41,26.669 41.18,26.348 41.474,26.165 C41.769,25.982 42.138,25.967 42.447,26.121 L49.447,29.621 C49.786,29.791 50,30.137 50,30.516 L50,37.016 C50,37.569 49.553,38.016 49,38.016 L49,38.016 Z"/><path d="M36,36.016 L41,36.016 L41,31.134 L36,28.634 L36,36.016 Z M42,38.016 L35,38.016 C34.448,38.016 34,37.569 34,37.016 L34,27.016 C34,26.669 34.18,26.348 34.474,26.165 C34.77,25.982 35.137,25.967 35.447,26.121 L42.447,29.621 C42.786,29.791 43,30.137 43,30.516 L43,37.016 C43,37.569 42.552,38.016 42,38.016 L42,38.016 Z"/><path d="M10,9.016 C9.448,9.016 9,8.569 9,8.016 C9,6.913 8.103,6.016 7,6.016 L3,6.016 C1.346,6.016 0,4.67 0,3.016 C0,1.362 1.346,0.016 3,0.016 L7,0.016 C7.552,0.016 8,0.463 8,1.016 C8,1.569 7.552,2.016 7,2.016 L3,2.016 C2.449,2.016 2,2.464 2,3.016 C2,3.568 2.449,4.016 3,4.016 L7,4.016 C9.206,4.016 11,5.81 11,8.016 C11,8.569 10.552,9.016 10,9.016"/><path d="M28,18.016 C27.448,18.016 27,17.569 27,17.016 C27,14.81 28.794,13.016 31,13.016 L35,13.016 C35.551,13.016 36,12.568 36,12.016 C36,11.464 35.551,11.016 35,11.016 L31,11.016 C30.448,11.016 30,10.569 30,10.016 C30,9.463 30.448,9.016 31,9.016 L35,9.016 C36.654,9.016 38,10.362 38,12.016 C38,13.67 36.654,15.016 35,15.016 L31,15.016 C29.897,15.016 29,15.913 29,17.016 C29,17.569 28.552,18.016 28,18.016"/></g></g></g><text x="0" y="76" fill="#000000" font-size="5px" font-weight="bold" font-family="'Helvetica Neue', Helvetica, Arial-Unicode, Arial, Sans-serif">Created by Ben Davis</text><text x="0" y="81" fill="#000000" font-size="5px" font-weight="bold" font-family="'Helvetica Neue', Helvetica, Arial-Unicode, Arial, Sans-serif">from the Noun Project</text></svg>