<svg xmlns="http://www.w3.org/2000/svg" xmlns:xlink="http://www.w3.org/1999/xlink" version="1.1" x="0px" y="0px" viewBox="0 0 64 80" style="enable-background:new 0 0 64 64;" xml:space="preserve"><path d="M2.026,61.226C2.131,61.68,2.535,62,3,62h50c0.473,0,0.881-0.331,0.979-0.794c0.098-0.463-0.143-0.931-0.576-1.121  l-7.637-3.36c3.684-3.276,7.098-7.49,7.098-13.725c0-5.487-2.322-10.579-6.554-14.412l1.946-5.239c0.114-0.308,0.07-0.65-0.117-0.92  C47.953,22.16,47.646,22,47.318,22H8.682c-0.328,0-0.634,0.16-0.821,0.429c-0.187,0.27-0.23,0.612-0.117,0.92l1.946,5.239  C5.458,32.421,3.136,37.513,3.136,43c0,5.499,1.933,9.799,6.23,13.764L2.56,60.103C2.142,60.307,1.921,60.772,2.026,61.226z   M11.596,57.897c0.304-0.148,0.512-0.442,0.553-0.778c0.04-0.337-0.093-0.671-0.354-0.888C7.127,52.348,5.136,48.391,5.136,43  c0-5.115,2.266-9.857,6.379-13.354c0.32-0.272,0.437-0.716,0.29-1.11L10.12,24h35.76l-1.685,4.536  c-0.146,0.395-0.03,0.838,0.29,1.11c4.113,3.496,6.379,8.238,6.379,13.354c0,6.091-3.839,10.106-7.594,13.231  c-0.266,0.222-0.399,0.564-0.351,0.908c0.048,0.343,0.271,0.636,0.587,0.775L48.244,60H7.31L11.596,57.897z"/><path d="M34.763,44.354C34.573,44.129,34.294,44,34,44c-2.312,0-4.462,1.168-5.752,3.024C26.419,45.15,23.368,44,20,44  c-3.895,0-7.17,3.182-8.775,5.078c-0.944,1.113-0.944,2.73,0,3.844C12.83,54.818,16.105,58,20,58c3.368,0,6.419-1.15,8.248-3.024  C29.538,56.832,31.688,58,34,58c0.294,0,0.573-0.129,0.763-0.354s0.271-0.521,0.223-0.811L34.014,51l0.973-5.836  C35.035,44.874,34.953,44.578,34.763,44.354z M32.794,55.85c-1.555-0.393-2.872-1.528-3.46-3.067  c-0.138-0.36-0.471-0.609-0.856-0.64c-0.384-0.025-0.753,0.165-0.945,0.5C26.38,54.65,23.354,56,20,56  c-3.087,0-5.867-2.738-7.25-4.371c-0.304-0.358-0.304-0.899,0-1.258C14.133,48.738,16.913,46,20,46c3.354,0,6.38,1.35,7.532,3.357  c0.192,0.335,0.563,0.536,0.945,0.5c0.385-0.03,0.718-0.279,0.856-0.64c0.588-1.539,1.906-2.675,3.46-3.067l-0.781,4.686  c-0.018,0.108-0.018,0.22,0,0.328L32.794,55.85z"/><rect x="16" y="50" width="2" height="2"/><path d="M44.775,35.922c0.944-1.113,0.944-2.73,0-3.844C43.17,30.182,39.895,27,36,27c-3.368,0-6.419,1.15-8.248,3.024  C26.462,28.168,24.312,27,22,27c-0.294,0-0.573,0.129-0.763,0.354s-0.271,0.521-0.223,0.811L21.986,34l-0.973,5.836  c-0.048,0.29,0.033,0.586,0.223,0.811S21.706,41,22,41c2.312,0,4.462-1.168,5.752-3.024C29.581,39.85,32.632,41,36,41  C39.895,41,43.17,37.818,44.775,35.922z M43.25,34.629C41.867,36.262,39.087,39,36,39c-3.354,0-6.38-1.35-7.532-3.357  c-0.179-0.312-0.511-0.503-0.868-0.503c-0.025,0-0.052,0.001-0.078,0.003c-0.385,0.03-0.718,0.279-0.856,0.64  c-0.588,1.539-1.906,2.675-3.46,3.067l0.781-4.686c0.018-0.108,0.018-0.22,0-0.328l-0.781-4.686c1.555,0.393,2.872,1.528,3.46,3.067  c0.138,0.36,0.471,0.609,0.856,0.64c0.395,0.028,0.753-0.165,0.945-0.5C29.62,30.35,32.646,29,36,29c3.087,0,5.867,2.738,7.25,4.371  C43.554,33.729,43.554,34.271,43.25,34.629z"/><rect x="38" y="33" width="2" height="2"/><rect x="8" y="45" width="2" height="2"/><rect x="10" y="41" width="2" height="2"/><rect x="12" y="37" width="2" height="2"/><path d="M60.775,10.922c0.944-1.113,0.944-2.73,0-3.844C59.17,5.182,55.895,2,52,2c-3.368,0-6.419,1.15-8.248,3.024  C42.462,3.168,40.312,2,38,2c-0.294,0-0.573,0.129-0.763,0.354s-0.271,0.521-0.223,0.811L37.986,9l-0.973,5.836  c-0.048,0.29,0.033,0.586,0.223,0.811S37.706,16,38,16c2.312,0,4.462-1.168,5.752-3.024C45.581,14.85,48.632,16,52,16  C55.895,16,59.17,12.818,60.775,10.922z M59.25,9.629C57.867,11.262,55.087,14,52,14c-3.354,0-6.38-1.35-7.532-3.357  c-0.179-0.312-0.511-0.503-0.868-0.503c-0.025,0-0.052,0.001-0.078,0.003c-0.385,0.03-0.718,0.279-0.856,0.64  c-0.588,1.539-1.906,2.675-3.46,3.067l0.781-4.686c0.018-0.108,0.018-0.22,0-0.328L39.206,4.15c1.555,0.393,2.872,1.528,3.46,3.067  c0.138,0.36,0.471,0.609,0.856,0.64c0.388,0.032,0.753-0.165,0.945-0.5C45.62,5.35,48.646,4,52,4c3.087,0,5.867,2.738,7.25,4.371  C59.554,8.729,59.554,9.271,59.25,9.629z"/><rect x="54" y="8" width="2" height="2"/><path d="M21.081,15.785l1.93,0.525c0.163-0.598,0.368-1.191,0.609-1.764l-1.843-0.777C21.501,14.424,21.267,15.102,21.081,15.785z"/><path d="M28.183,8.748L26.99,7.143c-0.569,0.424-1.114,0.888-1.622,1.38l1.394,1.436C27.206,9.525,27.685,9.118,28.183,8.748z"/><path d="M34.845,4.086c-0.71,0.074-1.417,0.195-2.1,0.361l0.471,1.943c0.597-0.145,1.215-0.251,1.838-0.316L34.845,4.086z"/><path d="M30.711,5.086c-0.659,0.257-1.308,0.561-1.928,0.903l0.967,1.75c0.542-0.299,1.11-0.565,1.688-0.79L30.711,5.086z"/><path d="M20.521,20h2c0-0.623,0.041-1.25,0.122-1.862l-1.982-0.262C20.568,18.574,20.521,19.289,20.521,20z"/><path d="M22.738,11.864l1.722,1.018c0.315-0.533,0.67-1.052,1.055-1.54l-1.572-1.236C23.503,10.663,23.099,11.255,22.738,11.864z"/><text x="0" y="79" fill="#000000" font-size="5px" font-weight="bold" font-family="'Helvetica Neue', Helvetica, Arial-Unicode, Arial, Sans-serif">Created by Becris</text><text x="0" y="84" fill="#000000" font-size="5px" font-weight="bold" font-family="'Helvetica Neue', Helvetica, Arial-Unicode, Arial, Sans-serif">from the Noun Project</text></svg>