<svg xmlns="http://www.w3.org/2000/svg" xmlns:xlink="http://www.w3.org/1999/xlink" version="1.1" x="0px" y="0px" viewBox="0 0 160.485 295.25" style="enable-background:new 0 0 160.485 236.2;" xml:space="preserve"><g><path d="M45.678,60.816c3.576,2.129,7.389,4.016,11.412,5.562c-0.153,0.073-0.256,0.125-0.256,0.125L36.91,169.67h21.666V226.2   c0,5.523,4.477,10,10,10c5.521,0,10-4.477,10-10V169.67h3.334V226.2c0,5.523,4.475,10,10,10c5.52,0,10-4.477,10-10V169.67h21.666   L103.65,66.502c0,0-0.103-0.052-0.257-0.126c4.023-1.545,7.835-3.432,11.411-5.561c14.831-8.847,25.925-21.683,33.472-32.279   c7.529-10.605,11.477-19.036,11.596-19.281c1.52-3.252,0.116-7.121-3.136-8.641c-3.253-1.519-7.121-0.116-8.641,3.134   c0,0-0.008,0.015-0.05,0.104c-0.642,1.361-7.537,15.309-19.438,28.534c-5.94,6.618-13.111,13.036-21.232,17.715   c-8.133,4.683-17.131,7.646-27.135,7.65c-10.327-0.005-19.581-3.163-27.918-8.108C39.841,42.245,29.682,30.717,22.806,21.01   c-3.442-4.85-6.079-9.226-7.836-12.358c-0.879-1.567-1.54-2.824-1.973-3.674c-0.216-0.426-0.376-0.747-0.478-0.955   c-0.101-0.211-0.132-0.274-0.132-0.274c-1.521-3.253-5.391-4.656-8.641-3.134c-3.252,1.52-4.655,5.389-3.134,8.641   C0.778,9.582,7.716,24.46,20.945,39.651C27.569,47.24,35.787,54.927,45.678,60.816z"/><circle cx="80.242" cy="30.008" r="21.5"/></g><text x="0" y="251.2" fill="#000000" font-size="5px" font-weight="bold" font-family="'Helvetica Neue', Helvetica, Arial-Unicode, Arial, Sans-serif">Created by Gan Khoon Lay</text><text x="0" y="256.2" fill="#000000" font-size="5px" font-weight="bold" font-family="'Helvetica Neue', Helvetica, Arial-Unicode, Arial, Sans-serif">from the Noun Project</text></svg>