<svg xmlns="http://www.w3.org/2000/svg" xmlns:xlink="http://www.w3.org/1999/xlink" version="1.1" x="0px" y="0px" viewBox="0 0 64 80" style="enable-background:new 0 0 64 64;" xml:space="preserve"><g><path d="M22,37C10.42,37,1,46.42,1,58v5h13h16h13v-5C43,46.42,33.58,37,22,37z M16,61V50h12v11H16z M41,61H30V48H14v13H3v-3   c0-10.477,8.523-19,19-19s19,8.523,19,19V61z"/><path d="M5.538,53.75l1.937,0.5C9.186,47.626,15.159,43,22,43v-2C14.247,41,7.478,46.243,5.538,53.75z"/><path d="M5,58h2c0-0.626,0.039-1.257,0.117-1.876l-1.984-0.248C5.044,56.577,5,57.292,5,58z"/><path d="M19.991,23.439L8,35.577v-3.552c0-1.579,0.758-3.082,2.027-4.02l7.034-5.201l-1.189-1.608l-7.034,5.201   C7.061,27.711,6,29.815,6,32.025v4.389l2.004,2.004L18,28.3V35h2v-8.724l2.276-2.304c1.352-0.094,2.513-0.855,3.163-1.964   L37.577,34h-3.552c-1.579,0-3.082-0.758-4.02-2.027l-5.201-7.034l-1.608,1.189L24,27.216V35h2v-5.08l2.397,3.242   C29.711,34.939,31.815,36,34.025,36h4.389l2.004-2.004L25.972,19.724c-0.094-1.352-0.855-2.513-1.964-3.163L36,4.423v3.552   c0,1.579-0.758,3.082-2.027,4.02l-7.034,5.201l1.189,1.608l7.034-5.201C36.939,12.289,38,10.185,38,7.975V3.586l-2.004-2.004   L21.724,16.028c-1.352,0.094-2.513,0.855-3.163,1.964L6.423,6h3.552c1.579,0,3.082,0.758,4.02,2.027l5.201,7.034l1.608-1.189   l-5.201-7.034C14.289,5.061,12.185,4,9.975,4H5.586L3.582,6.004l14.446,14.272C18.122,21.628,18.883,22.789,19.991,23.439z M22,18   c1.103,0,2,0.897,2,2s-0.897,2-2,2s-2-0.897-2-2S20.897,18,22,18z"/><path d="M61,28v-6H43v6h-2v18h20v2H43v2h18v11h-5v-8h-8v8h-3v2h18V28H61z M50,55h4v6h-4V55z M45,24h14v4H45V24z M61,30v2H43v-2H61z    M49,34v10h-2V34H49z M51,34h2v10h-2V34z M55,34h2v10h-2V34z M43,34h2v10h-2V34z M59,44V34h2v10H59z"/></g><text x="0" y="79" fill="#000000" font-size="5px" font-weight="bold" font-family="'Helvetica Neue', Helvetica, Arial-Unicode, Arial, Sans-serif">Created by Eucalyp</text><text x="0" y="84" fill="#000000" font-size="5px" font-weight="bold" font-family="'Helvetica Neue', Helvetica, Arial-Unicode, Arial, Sans-serif">from the Noun Project</text></svg>