<svg xmlns="http://www.w3.org/2000/svg" data-name="Layer 1" viewBox="0 0 100 125" x="0px" y="0px"><title>Artboard 29</title><path d="M93.63,10.37h-63a13.75,13.75,0,0,1-.15,12.31l17.6,1.17A8.22,8.22,0,0,1,48,40.26l-14.17,1,4.5,26H54.91L38.58,87.57A2.81,2.81,0,0,0,39,91.51l.24.19a2.81,2.81,0,0,0,3.95-.43L57.3,73.75V89.46a2.81,2.81,0,0,0,2.81,2.81h.31a2.81,2.81,0,0,0,2.81-2.81V73.75l14.1,17.53a2.81,2.81,0,0,0,3.95.43l.24-.19a2.81,2.81,0,0,0,.43-3.95L65.6,67.27h28a5.75,5.75,0,0,0,5.75-5.75V16.12A5.75,5.75,0,0,0,93.63,10.37ZM65.71,51.89a2,2,0,0,1-2,2h-4.4a2,2,0,0,1-2-2V41.15a2,2,0,0,1,2-2h4.4a2,2,0,0,1,2,2Zm12.91,0a2,2,0,0,1-2,2h-4.4a2,2,0,0,1-2-2V25.75a2,2,0,0,1,2-2h4.4a2,2,0,0,1,2,2Zm12.91,0a2,2,0,0,1-2,2h-4.4a2,2,0,0,1-2-2V35.78a2,2,0,0,1,2-2h4.4a2,2,0,0,1,2,2ZM18.15,7.67a8.69,8.69,0,1,1-8.69,8.69A8.69,8.69,0,0,1,18.15,7.67ZM33.6,70.52a1.93,1.93,0,0,1-1.88,2.33H24L22.48,89.8a2.85,2.85,0,0,1-2.83,2.53H15.76a2.85,2.85,0,0,1-2.83-2.53L11.41,72.85H3.69a1.93,1.93,0,0,1-1.88-2.33L4.41,59.65a2.8,2.8,0,0,1-1.17.1A3,3,0,0,1,.67,56.22L6.13,32.81A7.07,7.07,0,0,1,12,27.42a1.84,1.84,0,0,1,1.45.42l2.33,2a3,3,0,0,0,3.85,0l2.33-2a1.84,1.84,0,0,1,1.45-.42L47.79,29a3,3,0,0,1,2.8,3.34,3.13,3.13,0,0,1-3,2.68L27.71,36.51Z"/><text x="0" y="115" fill="#000000" font-size="5px" font-weight="bold" font-family="'Helvetica Neue', Helvetica, Arial-Unicode, Arial, Sans-serif">Created by Gregor Cresnar</text><text x="0" y="120" fill="#000000" font-size="5px" font-weight="bold" font-family="'Helvetica Neue', Helvetica, Arial-Unicode, Arial, Sans-serif">from the Noun Project</text></svg>